<svg xmlns="http://www.w3.org/2000/svg" xmlns:xlink="http://www.w3.org/1999/xlink" width="500" zoomAndPan="magnify" viewBox="0 0 375 374.999991" height="500" preserveAspectRatio="xMidYMid meet" version="1.0"><defs><clipPath id="236ac49804"><path d="M 126 0 L 234 0 L 234 45 L 126 45 Z M 126 0 " clip-rule="nonzero"/></clipPath><clipPath id="922d3b85ae"><path d="M 115.675781 -21.582031 L 218.046875 -68.628906 L 259.3125 21.164062 L 156.941406 68.210938 Z M 115.675781 -21.582031 " clip-rule="nonzero"/></clipPath><clipPath id="8e5765e775"><path d="M 126.453125 -8.8125 C 124.4375 8.648438 136.386719 19.257812 146.964844 22.9375 L 208.789062 44.382812 L 231.9375 -15.933594 C 235.277344 -26.65625 234.191406 -35.910156 228.621094 -44.203125 C 220.914062 -55.679688 206.277344 -60.605469 193.027344 -56.175781 C 184.902344 -53.453125 178.429688 -47.828125 174.824219 -40.292969 C 173.851562 -38.269531 173.117188 -36.164062 172.625 -34.015625 C 170.34375 -35.152344 167.882812 -36.023438 165.285156 -36.601562 C 156.226562 -38.617188 146.753906 -36.71875 139.273438 -31.371094 C 132.191406 -26.296875 127.519531 -18.078125 126.453125 -8.8125 Z M 126.453125 -8.8125 " clip-rule="nonzero"/></clipPath><clipPath id="526b8c3427"><path d="M 126 317 L 234 317 L 234 375 L 126 375 Z M 126 317 " clip-rule="nonzero"/></clipPath><clipPath id="c66ad5fc51"><path d="M 115.675781 353.417969 L 218.046875 306.371094 L 259.3125 396.164062 L 156.941406 443.210938 Z M 115.675781 353.417969 " clip-rule="nonzero"/></clipPath><clipPath id="cc1e6b97bf"><path d="M 126.453125 366.1875 C 124.4375 383.648438 136.386719 394.257812 146.964844 397.9375 L 208.789062 419.382812 L 231.9375 359.066406 C 235.277344 348.34375 234.191406 339.089844 228.621094 330.796875 C 220.914062 319.320312 206.277344 314.394531 193.027344 318.824219 C 184.902344 321.546875 178.429688 327.171875 174.824219 334.707031 C 173.851562 336.730469 173.117188 338.835938 172.625 340.984375 C 170.34375 339.847656 167.882812 338.976562 165.285156 338.398438 C 156.226562 336.382812 146.753906 338.28125 139.273438 343.628906 C 132.191406 348.703125 127.519531 356.921875 126.453125 366.1875 Z M 126.453125 366.1875 " clip-rule="nonzero"/></clipPath><clipPath id="7f0162eaa9"><path d="M 0 129 L 47 129 L 47 232 L 0 232 Z M 0 129 " clip-rule="nonzero"/></clipPath><clipPath id="19750495ba"><path d="M -71.824219 165.917969 L 30.546875 118.871094 L 71.8125 208.664062 L -30.558594 255.710938 Z M -71.824219 165.917969 " clip-rule="nonzero"/></clipPath><clipPath id="b6063e3b18"><path d="M -61.046875 178.6875 C -63.0625 196.148438 -51.113281 206.757812 -40.535156 210.4375 L 21.289062 231.882812 L 44.4375 171.566406 C 47.777344 160.84375 46.691406 151.589844 41.121094 143.296875 C 33.414062 131.820312 18.777344 126.894531 5.527344 131.324219 C -2.597656 134.046875 -9.070312 139.671875 -12.675781 147.207031 C -13.648438 149.230469 -14.382812 151.335938 -14.875 153.484375 C -17.15625 152.347656 -19.617188 151.476562 -22.214844 150.898438 C -31.273438 148.882812 -40.746094 150.78125 -48.226562 156.128906 C -55.308594 161.203125 -59.980469 169.421875 -61.046875 178.6875 Z M -61.046875 178.6875 " clip-rule="nonzero"/></clipPath><clipPath id="5f753e98dd"><path d="M 313 129 L 375 129 L 375 232 L 313 232 Z M 313 129 " clip-rule="nonzero"/></clipPath><clipPath id="144a86fc7e"><path d="M 303.175781 165.917969 L 405.546875 118.871094 L 446.8125 208.664062 L 344.441406 255.710938 Z M 303.175781 165.917969 " clip-rule="nonzero"/></clipPath><clipPath id="8f346c4979"><path d="M 313.953125 178.6875 C 311.9375 196.148438 323.886719 206.757812 334.464844 210.4375 L 396.289062 231.882812 L 419.4375 171.566406 C 422.777344 160.84375 421.691406 151.589844 416.121094 143.296875 C 408.414062 131.820312 393.777344 126.894531 380.527344 131.324219 C 372.402344 134.046875 365.929688 139.671875 362.324219 147.207031 C 361.351562 149.230469 360.617188 151.335938 360.125 153.484375 C 357.84375 152.347656 355.382812 151.476562 352.785156 150.898438 C 343.726562 148.882812 334.253906 150.78125 326.773438 156.128906 C 319.691406 161.203125 315.019531 169.421875 313.953125 178.6875 Z M 313.953125 178.6875 " clip-rule="nonzero"/></clipPath></defs><g clip-path="url(#236ac49804)"><g clip-path="url(#922d3b85ae)"><g clip-path="url(#8e5765e775)"><path fill="#ffffff" d="M 115.835938 -21.234375 L 218.207031 -68.28125 L 259.3125 21.164062 L 156.941406 68.210938 Z M 115.835938 -21.234375 " fill-opacity="1" fill-rule="nonzero"/></g></g></g><g clip-path="url(#526b8c3427)"><g clip-path="url(#c66ad5fc51)"><g clip-path="url(#cc1e6b97bf)"><path fill="#ffffff" d="M 115.835938 353.765625 L 218.207031 306.71875 L 259.3125 396.164062 L 156.941406 443.210938 Z M 115.835938 353.765625 " fill-opacity="1" fill-rule="nonzero"/></g></g></g><g clip-path="url(#7f0162eaa9)"><g clip-path="url(#19750495ba)"><g clip-path="url(#b6063e3b18)"><path fill="#ffffff" d="M -71.664062 166.265625 L 30.707031 119.21875 L 71.8125 208.664062 L -30.558594 255.710938 Z M -71.664062 166.265625 " fill-opacity="1" fill-rule="nonzero"/></g></g></g><g clip-path="url(#5f753e98dd)"><g clip-path="url(#144a86fc7e)"><g clip-path="url(#8f346c4979)"><path fill="#ffffff" d="M 303.335938 166.265625 L 405.707031 119.21875 L 446.8125 208.664062 L 344.441406 255.710938 Z M 303.335938 166.265625 " fill-opacity="1" fill-rule="nonzero"/></g></g></g></svg>